{
	"asset":{
		"generator":"Khronos glTF Blender I/O v4.5.48",
		"version":"2.0"
	},
	"scene":0,
	"scenes":[
		{
			"name":"Scene",
			"nodes":[
				0,
				1,
				2,
				3,
				4,
				5,
				6,
				7,
				8,
				9,
				10,
				11,
				12
			]
		}
	],
	"nodes":[
		{
			"mesh":0,
			"name":"train-locomotive-a"
		},
		{
			"mesh":1,
			"name":"train-carriage-box",
			"translation":[
				1.5833330154418945,
				0,
				-4.410492420196533
			]
		},
		{
			"mesh":2,
			"name":"train-carriage-coal",
			"translation":[
				-1.2460044622421265,
				0,
				-4.164516925811768
			]
		},
		{
			"mesh":3,
			"name":"train-carriage-container-blue",
			"translation":[
				0,
				0,
				-4.36095666885376
			]
		},
		{
			"mesh":4,
			"name":"train-carriage-container-green",
			"translation":[
				0,
				0,
				-6.196409225463867
			]
		},
		{
			"mesh":5,
			"name":"train-carriage-container-red",
			"translation":[
				-2.825162172317505,
				0,
				-4.434580326080322
			]
		},
		{
			"mesh":6,
			"name":"train-carriage-dirt",
			"translation":[
				-2.8293704986572266,
				0,
				-2.3929779529571533
			]
		},
		{
			"mesh":7,
			"name":"train-carriage-flatbed",
			"translation":[
				1.5132838487625122,
				0,
				-2.352818727493286
			]
		},
		{
			"mesh":8,
			"name":"train-carriage-flatbed-wood",
			"translation":[
				-1.1537585258483887,
				0,
				-2.275059700012207
			]
		},
		{
			"mesh":9,
			"name":"train-carriage-lumber",
			"translation":[
				0,
				0,
				-2.2090790271759033
			]
		},
		{
			"mesh":10,
			"name":"train-carriage-tank",
			"translation":[
				-2.653765916824341,
				0,
				0
			]
		},
		{
			"mesh":11,
			"name":"train-carriage-tank-large",
			"translation":[
				-1.2689722776412964,
				0,
				0
			]
		},
		{
			"mesh":12,
			"name":"train-carriage-wood",
			"translation":[
				1.3694998025894165,
				0,
				0
			]
		}
	],
	"materials":[
		{
			"doubleSided":true,
			"name":"colormap",
			"pbrMetallicRoughness":{
				"baseColorTexture":{
					"index":0
				},
				"metallicFactor":0
			}
		},
		{
			"doubleSided":true,
			"name":"colormap.001",
			"pbrMetallicRoughness":{
				"baseColorTexture":{
					"index":1
				},
				"metallicFactor":0
			}
		},
		{
			"doubleSided":true,
			"name":"colormap.002",
			"pbrMetallicRoughness":{
				"baseColorTexture":{
					"index":2
				},
				"metallicFactor":0
			}
		},
		{
			"doubleSided":true,
			"name":"colormap.003",
			"pbrMetallicRoughness":{
				"baseColorTexture":{
					"index":3
				},
				"metallicFactor":0
			}
		},
		{
			"doubleSided":true,
			"name":"colormap.004",
			"pbrMetallicRoughness":{
				"baseColorTexture":{
					"index":4
				},
				"metallicFactor":0
			}
		},
		{
			"doubleSided":true,
			"name":"colormap.005",
			"pbrMetallicRoughness":{
				"baseColorTexture":{
					"index":5
				},
				"metallicFactor":0
			}
		},
		{
			"doubleSided":true,
			"name":"colormap.006",
			"pbrMetallicRoughness":{
				"baseColorTexture":{
					"index":6
				},
				"metallicFactor":0
			}
		},
		{
			"doubleSided":true,
			"name":"colormap.007",
			"pbrMetallicRoughness":{
				"baseColorTexture":{
					"index":7
				},
				"metallicFactor":0
			}
		},
		{
			"doubleSided":true,
			"name":"colormap.008",
			"pbrMetallicRoughness":{
				"baseColorTexture":{
					"index":8
				},
				"metallicFactor":0
			}
		},
		{
			"doubleSided":true,
			"name":"colormap.009",
			"pbrMetallicRoughness":{
				"baseColorTexture":{
					"index":9
				},
				"metallicFactor":0
			}
		},
		{
			"doubleSided":true,
			"name":"colormap.010",
			"pbrMetallicRoughness":{
				"baseColorTexture":{
					"index":10
				},
				"metallicFactor":0
			}
		},
		{
			"doubleSided":true,
			"name":"colormap.011",
			"pbrMetallicRoughness":{
				"baseColorTexture":{
					"index":11
				},
				"metallicFactor":0
			}
		},
		{
			"doubleSided":true,
			"name":"colormap.012",
			"pbrMetallicRoughness":{
				"baseColorTexture":{
					"index":12
				},
				"metallicFactor":0
			}
		}
	],
	"meshes":[
		{
			"name":"train-locomotive-a",
			"primitives":[
				{
					"attributes":{
						"POSITION":0,
						"NORMAL":1,
						"TEXCOORD_0":2
					},
					"indices":3,
					"material":0
				}
			]
		},
		{
			"name":"train-carriage-box",
			"primitives":[
				{
					"attributes":{
						"POSITION":4,
						"NORMAL":5,
						"TEXCOORD_0":6
					},
					"indices":7,
					"material":1
				}
			]
		},
		{
			"name":"train-carriage-coal",
			"primitives":[
				{
					"attributes":{
						"POSITION":8,
						"NORMAL":9,
						"TEXCOORD_0":10
					},
					"indices":11,
					"material":2
				}
			]
		},
		{
			"name":"train-carriage-container-blue",
			"primitives":[
				{
					"attributes":{
						"POSITION":12,
						"NORMAL":13,
						"TEXCOORD_0":14
					},
					"indices":15,
					"material":3
				}
			]
		},
		{
			"name":"train-carriage-container-green",
			"primitives":[
				{
					"attributes":{
						"POSITION":16,
						"NORMAL":17,
						"TEXCOORD_0":18
					},
					"indices":15,
					"material":4
				}
			]
		},
		{
			"name":"train-carriage-container-red",
			"primitives":[
				{
					"attributes":{
						"POSITION":19,
						"NORMAL":20,
						"TEXCOORD_0":21
					},
					"indices":22,
					"material":5
				}
			]
		},
		{
			"name":"train-carriage-dirt",
			"primitives":[
				{
					"attributes":{
						"POSITION":23,
						"NORMAL":24,
						"TEXCOORD_0":25
					},
					"indices":26,
					"material":6
				}
			]
		},
		{
			"name":"train-carriage-flatbed",
			"primitives":[
				{
					"attributes":{
						"POSITION":27,
						"NORMAL":28,
						"TEXCOORD_0":29
					},
					"indices":30,
					"material":7
				}
			]
		},
		{
			"name":"train-carriage-flatbed-wood",
			"primitives":[
				{
					"attributes":{
						"POSITION":31,
						"NORMAL":32,
						"TEXCOORD_0":33
					},
					"indices":34,
					"material":8
				}
			]
		},
		{
			"name":"train-carriage-lumber",
			"primitives":[
				{
					"attributes":{
						"POSITION":35,
						"NORMAL":36,
						"TEXCOORD_0":37
					},
					"indices":38,
					"material":9
				}
			]
		},
		{
			"name":"train-carriage-tank",
			"primitives":[
				{
					"attributes":{
						"POSITION":39,
						"NORMAL":40,
						"TEXCOORD_0":41
					},
					"indices":42,
					"material":10
				}
			]
		},
		{
			"name":"train-carriage-tank-large",
			"primitives":[
				{
					"attributes":{
						"POSITION":43,
						"NORMAL":44,
						"TEXCOORD_0":45
					},
					"indices":42,
					"material":11
				}
			]
		},
		{
			"name":"train-carriage-wood",
			"primitives":[
				{
					"attributes":{
						"POSITION":46,
						"NORMAL":47,
						"TEXCOORD_0":48
					},
					"indices":49,
					"material":12
				}
			]
		}
	],
	"textures":[
		{
			"sampler":0,
			"source":0
		},
		{
			"sampler":0,
			"source":0
		},
		{
			"sampler":0,
			"source":0
		},
		{
			"sampler":0,
			"source":0
		},
		{
			"sampler":0,
			"source":0
		},
		{
			"sampler":0,
			"source":0
		},
		{
			"sampler":0,
			"source":0
		},
		{
			"sampler":0,
			"source":0
		},
		{
			"sampler":0,
			"source":0
		},
		{
			"sampler":0,
			"source":0
		},
		{
			"sampler":0,
			"source":0
		},
		{
			"sampler":0,
			"source":0
		},
		{
			"sampler":0,
			"source":0
		}
	],
	"images":[
		{
			"mimeType":"image/png",
			"name":"colormap",
			"uri":"colormap.png"
		}
	],
	"accessors":[
		{
			"bufferView":0,
			"componentType":5126,
			"count":2864,
			"max":[
				0.2681698203086853,
				0.6227070093154907,
				0.4878092408180237
			],
			"min":[
				-0.2681698203086853,
				0,
				-0.4878092408180237
			],
			"type":"VEC3"
		},
		{
			"bufferView":1,
			"componentType":5126,
			"count":2864,
			"type":"VEC3"
		},
		{
			"bufferView":2,
			"componentType":5126,
			"count":2864,
			"type":"VEC2"
		},
		{
			"bufferView":3,
			"componentType":5123,
			"count":4998,
			"type":"SCALAR"
		},
		{
			"bufferView":4,
			"componentType":5126,
			"count":1839,
			"max":[
				0.22834889590740204,
				0.4938693046569824,
				0.5137749314308167
			],
			"min":[
				-0.22834889590740204,
				1.1341988681579096e-08,
				-0.5137749314308167
			],
			"type":"VEC3"
		},
		{
			"bufferView":5,
			"componentType":5126,
			"count":1839,
			"type":"VEC3"
		},
		{
			"bufferView":6,
			"componentType":5126,
			"count":1839,
			"type":"VEC2"
		},
		{
			"bufferView":7,
			"componentType":5123,
			"count":3228,
			"type":"SCALAR"
		},
		{
			"bufferView":8,
			"componentType":5126,
			"count":2043,
			"max":[
				0.22834889590740204,
				0.6263090968132019,
				0.5137749314308167
			],
			"min":[
				-0.22834889590740204,
				1.1341988681579096e-08,
				-0.5137749314308167
			],
			"type":"VEC3"
		},
		{
			"bufferView":9,
			"componentType":5126,
			"count":2043,
			"type":"VEC3"
		},
		{
			"bufferView":10,
			"componentType":5126,
			"count":2043,
			"type":"VEC2"
		},
		{
			"bufferView":11,
			"componentType":5123,
			"count":3552,
			"type":"SCALAR"
		},
		{
			"bufferView":12,
			"componentType":5126,
			"count":2152,
			"max":[
				0.19028699398040771,
				0.5183596611022949,
				0.5137749314308167
			],
			"min":[
				-0.19028699398040771,
				1.1341988681579096e-08,
				-0.5137749314308167
			],
			"type":"VEC3"
		},
		{
			"bufferView":13,
			"componentType":5126,
			"count":2152,
			"type":"VEC3"
		},
		{
			"bufferView":14,
			"componentType":5126,
			"count":2152,
			"type":"VEC2"
		},
		{
			"bufferView":15,
			"componentType":5123,
			"count":3726,
			"type":"SCALAR"
		},
		{
			"bufferView":16,
			"componentType":5126,
			"count":2152,
			"max":[
				0.19028699398040771,
				0.5173900723457336,
				0.5137749314308167
			],
			"min":[
				-0.19028699398040771,
				1.1341988681579096e-08,
				-0.5137749314308167
			],
			"type":"VEC3"
		},
		{
			"bufferView":17,
			"componentType":5126,
			"count":2152,
			"type":"VEC3"
		},
		{
			"bufferView":18,
			"componentType":5126,
			"count":2152,
			"type":"VEC2"
		},
		{
			"bufferView":19,
			"componentType":5126,
			"count":2152,
			"max":[
				0.19028717279434204,
				0.5173900723457336,
				0.5137749314308167
			],
			"min":[
				-0.19028699398040771,
				1.1341988681579096e-08,
				-0.5137749314308167
			],
			"type":"VEC3"
		},
		{
			"bufferView":20,
			"componentType":5126,
			"count":2152,
			"type":"VEC3"
		},
		{
			"bufferView":21,
			"componentType":5126,
			"count":2152,
			"type":"VEC2"
		},
		{
			"bufferView":22,
			"componentType":5123,
			"count":3726,
			"type":"SCALAR"
		},
		{
			"bufferView":23,
			"componentType":5126,
			"count":2043,
			"max":[
				0.22834889590740204,
				0.6263090968132019,
				0.5137749314308167
			],
			"min":[
				-0.22834889590740204,
				1.1341988681579096e-08,
				-0.5137749314308167
			],
			"type":"VEC3"
		},
		{
			"bufferView":24,
			"componentType":5126,
			"count":2043,
			"type":"VEC3"
		},
		{
			"bufferView":25,
			"componentType":5126,
			"count":2043,
			"type":"VEC2"
		},
		{
			"bufferView":26,
			"componentType":5123,
			"count":3552,
			"type":"SCALAR"
		},
		{
			"bufferView":27,
			"componentType":5126,
			"count":1864,
			"max":[
				0.20931567251682281,
				0.44127529859542847,
				0.5137749314308167
			],
			"min":[
				-0.20931567251682281,
				1.1341988681579096e-08,
				-0.5137749314308167
			],
			"type":"VEC3"
		},
		{
			"bufferView":28,
			"componentType":5126,
			"count":1864,
			"type":"VEC3"
		},
		{
			"bufferView":29,
			"componentType":5126,
			"count":1864,
			"type":"VEC2"
		},
		{
			"bufferView":30,
			"componentType":5123,
			"count":3210,
			"type":"SCALAR"
		},
		{
			"bufferView":31,
			"componentType":5126,
			"count":1920,
			"max":[
				0.20931567251682281,
				0.44127529859542847,
				0.5137748718261719
			],
			"min":[
				-0.20931567251682281,
				1.1341988681579096e-08,
				-0.5137748718261719
			],
			"type":"VEC3"
		},
		{
			"bufferView":32,
			"componentType":5126,
			"count":1920,
			"type":"VEC3"
		},
		{
			"bufferView":33,
			"componentType":5126,
			"count":1920,
			"type":"VEC2"
		},
		{
			"bufferView":34,
			"componentType":5123,
			"count":3282,
			"type":"SCALAR"
		},
		{
			"bufferView":35,
			"componentType":5126,
			"count":2044,
			"max":[
				0.20931567251682281,
				0.44127529859542847,
				0.5137749314308167
			],
			"min":[
				-0.20931567251682281,
				1.1341988681579096e-08,
				-0.5137749314308167
			],
			"type":"VEC3"
		},
		{
			"bufferView":36,
			"componentType":5126,
			"count":2044,
			"type":"VEC3"
		},
		{
			"bufferView":37,
			"componentType":5126,
			"count":2044,
			"type":"VEC2"
		},
		{
			"bufferView":38,
			"componentType":5123,
			"count":3510,
			"type":"SCALAR"
		},
		{
			"bufferView":39,
			"componentType":5126,
			"count":1992,
			"max":[
				0.2637377679347992,
				0.6669556498527527,
				0.5137749314308167
			],
			"min":[
				-0.2637377679347992,
				1.1341988681579096e-08,
				-0.5137749314308167
			],
			"type":"VEC3"
		},
		{
			"bufferView":40,
			"componentType":5126,
			"count":1992,
			"type":"VEC3"
		},
		{
			"bufferView":41,
			"componentType":5126,
			"count":1992,
			"type":"VEC2"
		},
		{
			"bufferView":42,
			"componentType":5123,
			"count":3438,
			"type":"SCALAR"
		},
		{
			"bufferView":43,
			"componentType":5126,
			"count":1992,
			"max":[
				0.2637377679347992,
				0.6669556498527527,
				0.5137748718261719
			],
			"min":[
				-0.2637377679347992,
				1.1341988681579096e-08,
				-0.5137748718261719
			],
			"type":"VEC3"
		},
		{
			"bufferView":44,
			"componentType":5126,
			"count":1992,
			"type":"VEC3"
		},
		{
			"bufferView":45,
			"componentType":5126,
			"count":1992,
			"type":"VEC2"
		},
		{
			"bufferView":46,
			"componentType":5126,
			"count":1947,
			"max":[
				0.22834889590740204,
				0.599337100982666,
				0.5137748718261719
			],
			"min":[
				-0.22834889590740204,
				1.1341988681579096e-08,
				-0.5137748718261719
			],
			"type":"VEC3"
		},
		{
			"bufferView":47,
			"componentType":5126,
			"count":1947,
			"type":"VEC3"
		},
		{
			"bufferView":48,
			"componentType":5126,
			"count":1947,
			"type":"VEC2"
		},
		{
			"bufferView":49,
			"componentType":5123,
			"count":3408,
			"type":"SCALAR"
		}
	],
	"bufferViews":[
		{
			"buffer":0,
			"byteLength":34368,
			"byteOffset":0,
			"target":34962
		},
		{
			"buffer":0,
			"byteLength":34368,
			"byteOffset":34368,
			"target":34962
		},
		{
			"buffer":0,
			"byteLength":22912,
			"byteOffset":68736,
			"target":34962
		},
		{
			"buffer":0,
			"byteLength":9996,
			"byteOffset":91648,
			"target":34963
		},
		{
			"buffer":0,
			"byteLength":22068,
			"byteOffset":101644,
			"target":34962
		},
		{
			"buffer":0,
			"byteLength":22068,
			"byteOffset":123712,
			"target":34962
		},
		{
			"buffer":0,
			"byteLength":14712,
			"byteOffset":145780,
			"target":34962
		},
		{
			"buffer":0,
			"byteLength":6456,
			"byteOffset":160492,
			"target":34963
		},
		{
			"buffer":0,
			"byteLength":24516,
			"byteOffset":166948,
			"target":34962
		},
		{
			"buffer":0,
			"byteLength":24516,
			"byteOffset":191464,
			"target":34962
		},
		{
			"buffer":0,
			"byteLength":16344,
			"byteOffset":215980,
			"target":34962
		},
		{
			"buffer":0,
			"byteLength":7104,
			"byteOffset":232324,
			"target":34963
		},
		{
			"buffer":0,
			"byteLength":25824,
			"byteOffset":239428,
			"target":34962
		},
		{
			"buffer":0,
			"byteLength":25824,
			"byteOffset":265252,
			"target":34962
		},
		{
			"buffer":0,
			"byteLength":17216,
			"byteOffset":291076,
			"target":34962
		},
		{
			"buffer":0,
			"byteLength":7452,
			"byteOffset":308292,
			"target":34963
		},
		{
			"buffer":0,
			"byteLength":25824,
			"byteOffset":315744,
			"target":34962
		},
		{
			"buffer":0,
			"byteLength":25824,
			"byteOffset":341568,
			"target":34962
		},
		{
			"buffer":0,
			"byteLength":17216,
			"byteOffset":367392,
			"target":34962
		},
		{
			"buffer":0,
			"byteLength":25824,
			"byteOffset":384608,
			"target":34962
		},
		{
			"buffer":0,
			"byteLength":25824,
			"byteOffset":410432,
			"target":34962
		},
		{
			"buffer":0,
			"byteLength":17216,
			"byteOffset":436256,
			"target":34962
		},
		{
			"buffer":0,
			"byteLength":7452,
			"byteOffset":453472,
			"target":34963
		},
		{
			"buffer":0,
			"byteLength":24516,
			"byteOffset":460924,
			"target":34962
		},
		{
			"buffer":0,
			"byteLength":24516,
			"byteOffset":485440,
			"target":34962
		},
		{
			"buffer":0,
			"byteLength":16344,
			"byteOffset":509956,
			"target":34962
		},
		{
			"buffer":0,
			"byteLength":7104,
			"byteOffset":526300,
			"target":34963
		},
		{
			"buffer":0,
			"byteLength":22368,
			"byteOffset":533404,
			"target":34962
		},
		{
			"buffer":0,
			"byteLength":22368,
			"byteOffset":555772,
			"target":34962
		},
		{
			"buffer":0,
			"byteLength":14912,
			"byteOffset":578140,
			"target":34962
		},
		{
			"buffer":0,
			"byteLength":6420,
			"byteOffset":593052,
			"target":34963
		},
		{
			"buffer":0,
			"byteLength":23040,
			"byteOffset":599472,
			"target":34962
		},
		{
			"buffer":0,
			"byteLength":23040,
			"byteOffset":622512,
			"target":34962
		},
		{
			"buffer":0,
			"byteLength":15360,
			"byteOffset":645552,
			"target":34962
		},
		{
			"buffer":0,
			"byteLength":6564,
			"byteOffset":660912,
			"target":34963
		},
		{
			"buffer":0,
			"byteLength":24528,
			"byteOffset":667476,
			"target":34962
		},
		{
			"buffer":0,
			"byteLength":24528,
			"byteOffset":692004,
			"target":34962
		},
		{
			"buffer":0,
			"byteLength":16352,
			"byteOffset":716532,
			"target":34962
		},
		{
			"buffer":0,
			"byteLength":7020,
			"byteOffset":732884,
			"target":34963
		},
		{
			"buffer":0,
			"byteLength":23904,
			"byteOffset":739904,
			"target":34962
		},
		{
			"buffer":0,
			"byteLength":23904,
			"byteOffset":763808,
			"target":34962
		},
		{
			"buffer":0,
			"byteLength":15936,
			"byteOffset":787712,
			"target":34962
		},
		{
			"buffer":0,
			"byteLength":6876,
			"byteOffset":803648,
			"target":34963
		},
		{
			"buffer":0,
			"byteLength":23904,
			"byteOffset":810524,
			"target":34962
		},
		{
			"buffer":0,
			"byteLength":23904,
			"byteOffset":834428,
			"target":34962
		},
		{
			"buffer":0,
			"byteLength":15936,
			"byteOffset":858332,
			"target":34962
		},
		{
			"buffer":0,
			"byteLength":23364,
			"byteOffset":874268,
			"target":34962
		},
		{
			"buffer":0,
			"byteLength":23364,
			"byteOffset":897632,
			"target":34962
		},
		{
			"buffer":0,
			"byteLength":15576,
			"byteOffset":920996,
			"target":34962
		},
		{
			"buffer":0,
			"byteLength":6816,
			"byteOffset":936572,
			"target":34963
		}
	],
	"samplers":[
		{
			"magFilter":9728,
			"minFilter":9984
		}
	],
	"buffers":[
		{
			"byteLength":943388,
			"uri":"trains.bin"
		}
	]
}
